<?xml version="1.0" standalone="no"?>
<!DOCTYPE svg PUBLIC "-//W3C//DTD SVG 20010904//EN"
 "http://www.w3.org/TR/2001/REC-SVG-20010904/DTD/svg10.dtd">
<svg version="1.0" xmlns="http://www.w3.org/2000/svg"
 width="300.000000pt" height="191.000000pt" viewBox="0 0 300.000000 191.000000"
 preserveAspectRatio="xMidYMid meet">
<metadata>
Created by potrace 1.10, written by Peter Selinger 2001-2011
</metadata>
<g transform="translate(0.000000,191.000000) scale(0.100000,-0.100000)"
fill="#000000" stroke="none">
<path d="M1451 1360 c-45 -11 -62 -30 -66 -74 -2 -21 -5 -39 -7 -40 -1 -1 -15
-10 -30 -19 -22 -14 -28 -25 -28 -52 0 -31 -4 -35 -36 -44 -56 -15 -74 -37
-74 -88 0 -24 5 -53 11 -65 15 -27 94 -61 126 -53 16 4 44 -3 80 -20 63 -28
95 -32 112 -11 13 16 105 41 119 32 13 -8 108 40 115 59 10 26 8 84 -3 106 -6
11 -29 31 -50 44 -24 15 -40 33 -40 44 0 11 -12 29 -27 41 -20 15 -29 33 -33
62 -8 66 -82 100 -169 78z m104 -22 c42 -20 45 -25 45 -60 0 -34 5 -41 35 -59
29 -17 35 -27 35 -54 0 -29 5 -36 45 -55 45 -22 45 -22 45 -75 l0 -52 -51 -22
c-35 -14 -56 -18 -68 -12 -12 7 -32 0 -76 -27 l-59 -36 -68 37 c-55 30 -72 36
-88 27 -15 -8 -31 -5 -70 15 l-51 26 3 51 3 50 52 22 c50 20 53 23 53 57 0 31
5 38 35 52 31 15 35 21 35 57 0 36 4 42 38 59 49 25 54 25 107 -1z"/>
<path d="M1460 1325 l-25 -14 34 -14 c31 -13 39 -13 68 1 l33 16 -31 13 c-39
16 -48 16 -79 -2z"/>
<path d="M1420 1262 c0 -34 4 -40 35 -55 l35 -17 0 40 c0 34 -4 42 -30 55 -40
20 -40 20 -40 -23z"/>
<path d="M1543 1284 c-29 -14 -33 -22 -33 -55 l0 -39 35 17 c31 15 35 21 35
55 0 21 -1 38 -2 38 -2 0 -18 -8 -35 -16z"/>
<path d="M1373 1203 c-26 -17 -32 -77 -10 -86 10 -4 12 3 9 24 -6 41 28 52 87
29 44 -17 47 -17 102 4 32 11 61 18 64 14 13 -13 -6 -43 -41 -66 l-35 -23 2
-75 c2 -78 -5 -93 -42 -94 -28 0 -69 40 -70 68 0 26 -1 26 -9 5 -5 -13 -14
-23 -20 -23 -25 0 -6 -20 43 -45 l52 -27 54 30 c47 26 51 31 32 37 -18 5 -21
14 -21 60 0 54 1 55 40 75 33 17 40 26 40 50 0 18 -8 34 -21 44 -19 13 -26 12
-73 -11 l-53 -25 -49 23 c-27 13 -51 24 -54 25 -3 2 -15 -4 -27 -13z"/>
<path d="M1631 1101 l-32 -17 26 -12 c33 -15 54 -15 83 1 l23 13 -34 16 c-30
14 -35 14 -66 -1z"/>
<path d="M1285 1096 l-30 -13 38 -12 c30 -10 44 -10 68 -1 40 17 48 5 10 -15
-27 -13 -31 -21 -31 -54 l0 -39 35 16 c32 15 35 20 35 60 0 40 -3 44 -35 58
-41 17 -51 17 -90 0z"/>
<path d="M1250 1032 c0 -34 4 -40 35 -55 l35 -17 0 40 c0 34 -4 42 -30 55 -40
20 -40 20 -40 -23z"/>
<path d="M1580 1035 c0 -30 5 -37 38 -54 l38 -19 -2 40 c-1 36 -6 43 -34 54
-42 18 -40 19 -40 -21z"/>
<path d="M1698 1054 c-23 -12 -28 -21 -28 -54 l0 -40 35 17 c31 15 35 21 35
55 0 42 -3 44 -42 22z"/>
<path d="M558 800 c-27 -20 -27 -23 -13 -50 8 -16 15 -38 15 -49 0 -11 11 -33
24 -48 22 -25 27 -27 46 -15 17 10 25 11 36 1 11 -9 21 -9 39 -1 29 13 41 1
25 -27 -14 -27 -13 -66 3 -78 7 -6 168 -9 415 -9 452 2 431 -2 417 73 -10 53
16 38 29 -17 10 -39 15 -45 46 -52 56 -12 211 -1 228 15 12 13 17 12 33 -4 16
-16 35 -18 166 -17 81 0 156 2 166 5 13 3 17 15 17 54 0 42 3 49 20 49 10 0
31 5 45 12 19 9 28 9 37 0 7 -7 15 -12 20 -12 15 0 48 44 48 65 0 12 7 30 15
41 22 29 18 52 -12 67 -34 17 -276 13 -310 -4 -17 -9 -26 -9 -37 0 -19 16
-120 22 -173 10 -26 -5 -68 -5 -109 0 -67 10 -89 6 -131 -25 -20 -14 -23 -14
-43 6 -16 16 -28 20 -50 15 -16 -3 -38 -1 -49 4 -17 9 -26 6 -54 -19 -32 -27
-36 -29 -48 -13 -20 24 -77 45 -102 37 -12 -3 -32 -16 -44 -27 l-23 -20 -24
23 c-16 14 -31 20 -42 16 -9 -4 -32 -1 -51 5 -26 8 -41 8 -63 -1 -22 -9 -37
-9 -64 0 -28 9 -40 8 -65 -4 -26 -14 -32 -14 -58 -1 -29 16 -109 12 -144 -6
-9 -4 -20 -4 -25 1 -5 5 -36 12 -69 15 -52 6 -64 4 -87 -15z m102 -31 c0 -5
-7 -9 -15 -9 -11 0 -15 -12 -15 -50 0 -38 -4 -50 -15 -50 -11 0 -15 12 -15 51
0 46 -2 51 -20 46 -14 -4 -20 0 -20 11 0 14 9 16 50 14 27 -2 50 -8 50 -13z
m65 -39 c18 0 24 6 27 27 2 14 9 28 16 31 9 3 12 -14 12 -62 0 -52 -3 -66 -15
-66 -9 0 -15 9 -15 25 0 20 -5 25 -25 25 -20 0 -25 -5 -25 -25 0 -16 -6 -25
-15 -25 -20 0 -22 116 -2 123 7 2 13 -7 15 -25 3 -22 8 -28 27 -28z m165 39
c0 -5 -16 -9 -36 -9 -24 0 -34 -4 -31 -12 2 -7 16 -12 31 -10 18 2 26 -2 26
-13 0 -10 -10 -15 -31 -15 -20 0 -29 -4 -26 -12 2 -8 16 -12 35 -10 24 3 32
-1 32 -12 0 -12 -11 -16 -47 -16 l-48 0 0 57 0 58 40 5 c43 6 55 4 55 -11z
m111 11 c10 -6 19 -17 19 -25 0 -17 -16 -20 -25 -5 -8 12 -35 13 -35 1 0 -5
14 -14 30 -20 61 -21 46 -74 -19 -69 -25 2 -37 8 -39 21 -2 10 3 17 12 17 9 0
16 -4 16 -10 0 -5 9 -10 21 -10 26 0 20 24 -7 29 -44 8 -60 51 -26 70 22 13
29 13 53 1z m140 -8 c25 -21 30 -71 9 -96 -17 -21 -69 -20 -92 1 -32 28 -19
91 22 106 26 9 37 7 61 -11z m69 -31 c0 -46 2 -50 27 -53 48 -6 39 -28 -11
-28 l-46 0 0 65 c0 51 3 65 15 65 11 0 15 -12 15 -49z m155 39 c31 -12 46 -46
33 -80 -11 -31 -25 -40 -60 -40 -33 0 -68 31 -68 60 0 21 41 70 59 70 5 0 21
-4 36 -10z m235 -40 c0 -49 1 -50 30 -50 20 0 30 -5 30 -15 0 -11 -12 -15 -45
-15 l-45 0 0 58 c0 32 3 62 7 65 16 17 23 3 23 -43z m169 34 c29 -21 13 -42
-17 -23 -17 10 -23 10 -36 0 -35 -29 -2 -82 37 -60 23 14 42 2 26 -17 -16 -19
-68 -18 -91 3 -18 16 -24 59 -10 79 9 13 43 33 57 34 6 0 21 -7 34 -16z m61
-14 c0 -25 4 -30 25 -30 21 0 25 5 25 31 0 20 4 29 13 27 7 -3 13 -28 15 -66
2 -51 0 -62 -13 -62 -9 0 -15 9 -15 25 0 20 -5 25 -25 25 -20 0 -25 -5 -25
-25 0 -16 -6 -25 -15 -25 -12 0 -15 14 -15 65 0 51 3 65 15 65 10 0 15 -10 15
-30z m380 -41 c0 -46 -3 -59 -15 -59 -12 0 -15 14 -15 65 0 53 3 63 15 59 11
-5 15 -22 15 -65z m81 61 c10 -6 19 -17 19 -25 0 -17 -16 -20 -25 -5 -8 12
-35 13 -35 1 0 -5 14 -14 30 -20 61 -21 46 -74 -19 -69 -25 2 -37 8 -39 21 -4
19 24 24 30 5 3 -7 12 -9 22 -5 21 8 12 27 -13 27 -38 0 -56 50 -23 69 22 13
29 13 53 1z m135 -19 c-4 -5 -13 -8 -21 -4 -12 4 -15 -5 -15 -46 0 -39 -4 -51
-15 -51 -11 0 -15 12 -15 50 0 43 -3 50 -20 50 -42 0 -18 19 28 22 50 3 68 -3
58 -21z m-883 -34 c21 -65 21 -67 2 -67 -8 0 -15 5 -15 10 0 6 -11 10 -25 10
-14 0 -25 -4 -25 -10 0 -5 -8 -10 -19 -10 -17 0 -17 2 3 60 17 47 25 60 42 60
16 0 24 -12 37 -53z m467 43 c0 -5 -13 -10 -30 -10 -21 0 -30 -5 -30 -16 0
-11 8 -14 27 -12 15 2 28 -2 30 -9 3 -9 -6 -13 -26 -13 -19 0 -31 -5 -31 -13
0 -9 10 -12 30 -9 23 3 30 0 30 -12 0 -12 -10 -16 -45 -16 l-45 0 0 60 0 60
45 0 c25 0 45 -4 45 -10z m68 -31 l18 -42 16 42 c11 27 23 41 35 41 15 0 18
-9 18 -60 0 -48 -3 -60 -15 -60 -12 0 -15 9 -13 38 l3 37 -17 -37 c-8 -21 -21
-38 -28 -38 -7 0 -19 17 -28 38 l-15 37 -1 -37 c-1 -23 -6 -38 -13 -38 -9 0
-13 19 -13 60 0 51 3 60 18 60 11 0 24 -15 35 -41z m-628 -109 c0 -6 -13 -10
-30 -10 -32 0 -37 9 -18 28 12 12 48 -1 48 -18z m468 -6 c2 -1 -4 -14 -14 -29
l-17 -27 -14 26 c-8 14 -20 26 -28 26 -18 0 -20 17 -3 22 10 4 58 -8 76 -18z
m-1128 -24 c0 -5 -8 -10 -17 -10 -15 0 -16 -2 -3 -10 10 -6 11 -10 3 -10 -19
0 -16 -18 5 -23 10 -3 6 -5 -10 -6 -24 -1 -28 3 -28 27 0 16 3 32 7 35 10 11
43 8 43 -3z m30 -1 c0 -8 4 -8 13 -1 10 9 13 4 13 -23 0 -27 -3 -32 -13 -23
-9 7 -13 7 -13 -1 0 -6 -5 -11 -10 -11 -7 0 -7 6 0 19 7 13 7 22 0 26 -13 8
-13 25 0 25 6 0 10 -5 10 -11z m98 -12 c2 -10 -4 -20 -15 -24 -10 -4 -21 -11
-25 -17 -4 -6 -8 6 -8 27 0 34 3 38 22 35 13 -2 24 -11 26 -21z m62 13 c0 -5
-8 -10 -17 -10 -15 0 -16 -2 -3 -10 10 -6 11 -10 3 -10 -19 0 -16 -18 5 -23
13 -4 11 -5 -5 -6 -20 -1 -23 4 -23 34 0 28 4 35 20 35 11 0 20 -4 20 -10z
m59 -4 c7 -8 8 -22 3 -36 -6 -17 -11 -20 -17 -11 -6 11 -9 10 -16 0 -6 -9 -9
-1 -9 24 0 39 17 50 39 23z m41 -21 c0 -19 -4 -35 -10 -35 -5 0 -10 16 -10 35
0 19 5 35 10 35 6 0 10 -16 10 -35z m63 13 c12 11 15 8 19 -18 3 -16 1 -30 -4
-30 -4 0 -8 8 -8 18 0 13 -2 14 -9 3 -7 -11 -10 -11 -16 0 -6 9 -10 8 -16 -7
-6 -14 -8 -8 -8 20 -1 36 0 38 13 21 11 -16 17 -17 29 -7z m87 12 c0 -5 -8
-10 -17 -10 -15 0 -16 -2 -3 -10 10 -6 11 -10 3 -10 -19 0 -16 -18 5 -23 10
-3 6 -5 -10 -6 -24 -1 -28 3 -28 27 0 16 3 32 7 35 10 11 43 8 43 -3z m63 -8
c3 15 5 9 6 -16 1 -38 1 -39 -19 -21 -18 16 -20 16 -20 2 0 -10 -4 -17 -10
-17 -5 0 -10 17 -10 37 l0 36 24 -22 24 -23 5 24z m60 -14 c-6 -35 -11 -44
-17 -37 -2 2 -6 19 -9 37 -6 27 -4 32 13 32 17 0 19 -5 13 -32z m110 14 c3 15
5 9 6 -16 1 -38 1 -39 -19 -21 -18 16 -20 16 -20 2 0 -10 -4 -17 -10 -17 -5 0
-10 17 -10 37 l0 36 24 -22 24 -23 5 24z m82 9 c3 -5 -5 -11 -17 -13 -25 -3
-31 -29 -9 -36 10 -3 12 0 8 12 -4 10 -1 16 8 16 8 0 15 -9 15 -21 0 -16 -5
-20 -27 -17 -17 2 -29 10 -31 21 -6 32 37 63 53 38z m105 -1 c0 -5 -5 -10 -10
-10 -6 0 -8 -11 -4 -25 4 -15 2 -25 -5 -25 -6 0 -11 11 -11 25 0 14 -4 25 -10
25 -5 0 -10 5 -10 10 0 6 11 10 25 10 14 0 25 -4 25 -10z m60 0 c0 -5 -8 -10
-17 -10 -15 0 -16 -2 -3 -10 10 -6 11 -10 3 -10 -19 0 -16 -18 5 -23 13 -4 11
-5 -5 -6 -20 -1 -23 4 -23 34 0 28 4 35 20 35 11 0 20 -4 20 -10z m70 0 c0 -5
-9 -10 -21 -10 -14 0 -19 -5 -17 -17 2 -10 11 -17 21 -17 9 1 17 -2 17 -7 0
-14 -36 -10 -49 5 -9 11 -10 20 -1 35 11 21 50 29 50 11z m45 -20 c7 0 16 8
18 18 3 9 5 -1 5 -23 0 -22 -2 -32 -5 -22 -2 9 -11 17 -18 17 -7 0 -16 -8 -18
-17 -3 -10 -5 0 -5 22 0 22 2 32 5 23 2 -10 11 -18 18 -18z m132 -11 c11 -25
10 -26 -18 -25 -22 1 -28 5 -23 16 3 8 9 23 11 33 6 21 14 14 30 -24z m43 12
c0 -16 6 -32 13 -34 6 -3 2 -6 -10 -6 -20 -1 -23 4 -23 34 0 19 5 35 10 35 6
0 10 -13 10 -29z m88 20 c21 -13 11 -55 -14 -59 -30 -4 -48 21 -34 47 11 22
27 26 48 12z m72 -8 c0 10 5 17 10 17 6 0 10 -16 10 -35 0 -41 -5 -43 -31 -12
l-20 22 6 -22 c4 -14 2 -23 -4 -23 -6 0 -11 16 -11 37 0 35 0 36 20 18 18 -16
20 -16 20 -2z m80 7 c0 -5 -8 -10 -17 -10 -15 0 -16 -2 -3 -10 10 -6 11 -10 3
-10 -19 0 -16 -18 5 -23 13 -4 11 -5 -5 -6 -20 -1 -23 4 -23 34 0 28 4 35 20
35 11 0 20 -4 20 -10z"/>
<path d="M1083 753 c-17 -6 -16 -48 1 -62 30 -25 71 24 46 54 -13 15 -25 17
-47 8z"/>
<path d="M1310 741 c-19 -36 17 -74 46 -50 19 16 18 55 -2 63 -25 10 -33 7
-44 -13z"/>
<path d="M2052 573 c2 -10 10 -18 18 -18 8 0 16 8 18 18 2 12 -3 17 -18 17
-15 0 -20 -5 -18 -17z"/>
</g>
</svg>
